<svg width="15" height="15" viewBox="0 0 15 15" fill="none" xmlns="http://www.w3.org/2000/svg">
<path d="M9.30379 7.49998L14.3507 2.45306C14.5902 2.21396 14.725 1.8895 14.7253 1.55105C14.7256 1.21261 14.5914 0.887914 14.3523 0.648389C14.1132 0.408863 13.7887 0.274131 13.4503 0.273832C13.1119 0.273533 12.7872 0.407692 12.5476 0.646795L7.50071 5.69371L2.45379 0.646795C2.21427 0.407269 1.8894 0.272705 1.55066 0.272705C1.21192 0.272705 0.887053 0.407269 0.647527 0.646795C0.408002 0.886321 0.273438 1.21119 0.273438 1.54993C0.273438 1.88867 0.408002 2.21353 0.647527 2.45306L5.69444 7.49998L0.647527 12.5469C0.408002 12.7864 0.273438 13.1113 0.273438 13.45C0.273438 13.7888 0.408002 14.1136 0.647527 14.3532C0.887053 14.5927 1.21192 14.7272 1.55066 14.7272C1.8894 14.7272 2.21427 14.5927 2.45379 14.3532L7.50071 9.30624L12.5476 14.3532C12.7872 14.5927 13.112 14.7272 13.4508 14.7272C13.7895 14.7272 14.1144 14.5927 14.3539 14.3532C14.5934 14.1136 14.728 13.7888 14.728 13.45C14.728 13.1113 14.5934 12.7864 14.3539 12.5469L9.30379 7.49998Z" fill="#3F3F3E"/>
</svg>
