<svg width="580" height="442" viewBox="0 0 580 442" fill="none" xmlns="http://www.w3.org/2000/svg">
<g filter="url(#filter0_d_138_112)">
<path d="M423.329 227.827L575.001 152.239L271.719 1L-31.625 152.239L120.047 227.827L271.719 152.239L423.329 227.827Z" stroke="white" stroke-width="1.3" stroke-linecap="round" stroke-linejoin="round"/>
<path d="M-32 152.239L-31.6286 246.77L120.043 322.421L271.715 246.77L423.325 322.421L574.997 246.77V152.239" stroke="white" stroke-width="1.3" stroke-linecap="round" stroke-linejoin="round"/>
<path d="M398.868 310.287L271.711 373.679L144.555 310.287" stroke="white" stroke-width="1.3" stroke-linecap="round" stroke-linejoin="round"/>
<path d="M96.5223 310.782L-31.625 374.732L271.719 525.97L575.001 374.732L446.915 310.782" stroke="white" stroke-width="1.3" stroke-linecap="round" stroke-linejoin="round"/>
<path d="M-31.625 374.732V456.139L271.719 607.378L575.001 456.139V374.732" stroke="white" stroke-width="1.3" stroke-linecap="round" stroke-linejoin="round"/>
<line x1="423.427" y1="229.33" x2="423.427" y2="322.353" stroke="white" stroke-width="1.3"/>
<line x1="271.65" y1="152" x2="271.65" y2="247" stroke="white" stroke-width="1.3"/>
<line x1="119.927" y1="228.39" x2="119.927" y2="322.353" stroke="white" stroke-width="1.3"/>
</g>
<defs>
<filter id="filter0_d_138_112" x="-36.6484" y="0.349976" width="616.301" height="615.678" filterUnits="userSpaceOnUse" color-interpolation-filters="sRGB">
<feFlood flood-opacity="0" result="BackgroundImageFix"/>
<feColorMatrix in="SourceAlpha" type="matrix" values="0 0 0 0 0 0 0 0 0 0 0 0 0 0 0 0 0 0 127 0" result="hardAlpha"/>
<feOffset dy="4"/>
<feGaussianBlur stdDeviation="2"/>
<feComposite in2="hardAlpha" operator="out"/>
<feColorMatrix type="matrix" values="0 0 0 0 0 0 0 0 0 0 0 0 0 0 0 0 0 0 0.25 0"/>
<feBlend mode="normal" in2="BackgroundImageFix" result="effect1_dropShadow_138_112"/>
<feBlend mode="normal" in="SourceGraphic" in2="effect1_dropShadow_138_112" result="shape"/>
</filter>
</defs>
</svg>
