<svg width="24" height="19" viewBox="0 0 24 19" fill="none" xmlns="http://www.w3.org/2000/svg">
<path d="M3.6 8.3125C4.92375 8.3125 6 7.24746 6 5.9375C6 4.62754 4.92375 3.5625 3.6 3.5625C2.27625 3.5625 1.2 4.62754 1.2 5.9375C1.2 7.24746 2.27625 8.3125 3.6 8.3125ZM20.4 8.3125C21.7238 8.3125 22.8 7.24746 22.8 5.9375C22.8 4.62754 21.7238 3.5625 20.4 3.5625C19.0763 3.5625 18 4.62754 18 5.9375C18 7.24746 19.0763 8.3125 20.4 8.3125ZM21.6 9.5H19.2C18.54 9.5 17.9438 9.76348 17.5088 10.1902C19.02 11.0104 20.0925 12.491 20.325 14.25H22.8C23.4638 14.25 24 13.7193 24 13.0625V11.875C24 10.565 22.9238 9.5 21.6 9.5ZM12 9.5C14.3213 9.5 16.2 7.64082 16.2 5.34375C16.2 3.04668 14.3213 1.1875 12 1.1875C9.67875 1.1875 7.8 3.04668 7.8 5.34375C7.8 7.64082 9.67875 9.5 12 9.5ZM14.88 10.6875H14.5688C13.7888 11.0586 12.9225 11.2812 12 11.2812C11.0775 11.2812 10.215 11.0586 9.43125 10.6875H9.12C6.735 10.6875 4.8 12.6023 4.8 14.9625V16.0312C4.8 17.0146 5.60625 17.8125 6.6 17.8125H17.4C18.3938 17.8125 19.2 17.0146 19.2 16.0312V14.9625C19.2 12.6023 17.265 10.6875 14.88 10.6875ZM6.49125 10.1902C6.05625 9.76348 5.46 9.5 4.8 9.5H2.4C1.07625 9.5 0 10.565 0 11.875V13.0625C0 13.7193 0.53625 14.25 1.2 14.25H3.67125C3.9075 12.491 4.98 11.0104 6.49125 10.1902Z" fill="#556080"/>
</svg>
