<svg width="14" height="14" viewBox="0 0 14 14" fill="none" xmlns="http://www.w3.org/2000/svg">
<path d="M7.57664 0.99748C7.31977 0.554714 6.68031 0.554714 6.42344 0.99748L4.61405 4.11569C4.48713 4.33441 4.26777 4.48367 4.01773 4.52143L0.626847 5.03359C0.0573268 5.11961 -0.142447 5.83867 0.301093 6.20613L2.82715 8.29893C3.06098 8.49267 3.17093 8.79827 3.11413 9.09653L2.45335 12.5667C2.34889 13.1152 2.92475 13.5414 3.41885 13.2813L6.61177 11.6C6.85477 11.4721 7.14524 11.4721 7.38831 11.6L10.5812 13.2813C11.0753 13.5414 11.6512 13.1152 11.5467 12.5667L10.886 9.09653C10.8292 8.79827 10.9391 8.49267 11.1729 8.29893L13.699 6.20613C14.1425 5.83867 13.9428 5.11961 13.3732 5.03359L9.98237 4.52143C9.73231 4.48367 9.51297 4.33441 9.38604 4.11569L7.57664 0.99748Z" fill="#282D49"/>
</svg>
