<svg width="16" height="16" viewBox="0 0 16 16" fill="none" xmlns="http://www.w3.org/2000/svg">
<path d="M8.57615 1.99748C8.31928 1.55471 7.67982 1.55471 7.42295 1.99748L5.61356 5.11569C5.48664 5.33441 5.26728 5.48367 5.01724 5.52143L1.62636 6.03359C1.05684 6.11961 0.857065 6.83867 1.30061 7.20613L3.82667 9.29893C4.06049 9.49267 4.17044 9.79827 4.11364 10.0965L3.45286 13.5667C3.3484 14.1152 3.92426 14.5414 4.41836 14.2813L7.61128 12.6C7.85428 12.4721 8.14475 12.4721 8.38782 12.6L11.5808 14.2813C12.0748 14.5414 12.6507 14.1152 12.5462 13.5667L11.8855 10.0965C11.8287 9.79827 11.9386 9.49267 12.1724 9.29893L14.6985 7.20613C15.142 6.83867 14.9423 6.11961 14.3728 6.03359L10.9819 5.52143C10.7318 5.48367 10.5125 5.33441 10.3856 5.11569L8.57615 1.99748Z" fill="#1F6B04"/>
</svg>
