<svg width="56" height="56" viewBox="0 0 56 56" fill="none" xmlns="http://www.w3.org/2000/svg">
<path d="M34.25 26.75H33V24.25C33 22.9239 32.4732 21.6521 31.5355 20.7145C30.5979 19.7768 29.3261 19.25 28 19.25C26.6739 19.25 25.4021 19.7768 24.4645 20.7145C23.5268 21.6521 23 22.9239 23 24.25V26.75H21.75L20.5 28V35.5L21.75 36.75H34.25L35.5 35.5V28L34.25 26.75ZM24.25 24.25C24.25 23.2554 24.6451 22.3016 25.3483 21.5983C26.0516 20.8951 27.0054 20.5 28 20.5C28.9946 20.5 29.9484 20.8951 30.6517 21.5983C31.3549 22.3016 31.75 23.2554 31.75 24.25V26.75H24.25V24.25ZM34.25 35.5H21.75V28H34.25V35.5Z" fill="white"/>
<circle opacity="0.5" cx="28" cy="28" r="27.25" stroke="#E2E8F1" stroke-width="1.5"/>
</svg>
